<mxfile host="app.diagrams.net" modified="2023-08-11T11:13:34.346Z" agent="Mozilla/5.0 (Windows NT 10.0; Win64; x64) AppleWebKit/537.36 (KHTML, like Gecko) Chrome/114.0.0.0 YaBrowser/23.7.2.765 Yowser/2.5 Safari/537.36" version="21.5.2" etag="tvNZx039SkRj3wM586bi" type="github">
  <diagram name="Страница 1" id="OtTlA3fWD7Remeb2QTnt">
    <mxGraphModel>
      <root>
        <mxCell id="0" />
        <mxCell id="1" parent="0" />
      </root>
    </mxGraphModel>
  </diagram>
</mxfile>
